<?xml version="1.0" encoding="UTF-8"?>
<!DOCTYPE svg PUBLIC "-//W3C//DTD SVG 1.1//EN" "http://www.w3.org/Graphics/SVG/1.1/DTD/svg11.dtd">
<!-- Creator: CorelDRAW -->
<svg xmlns="http://www.w3.org/2000/svg" xml:space="preserve" width="1.8198mm" height="2.032mm" version="1.1" shape-rendering="geometricPrecision" text-rendering="geometricPrecision" image-rendering="optimizeQuality" fill-rule="evenodd" clip-rule="evenodd"
viewBox="0 0 4.51 5.04"
 xmlns:xlink="http://www.w3.org/1999/xlink"
 xmlns:xodm="http://www.corel.com/coreldraw/odm/2003">
 <g id="Layer_x0020_1">
  <metadata id="CorelCorpID_0Corel-Layer"/>
  <path fill="#C5C5C4" fill-rule="nonzero" d="M2.26 5.04c-0.31,0 -0.61,-0.06 -0.88,-0.18 -0.27,-0.12 -0.51,-0.28 -0.72,-0.48 -0.2,-0.2 -0.36,-0.44 -0.48,-0.72 -0.12,-0.27 -0.18,-0.57 -0.18,-0.87 0,-0.1 0.03,-0.18 0.11,-0.25 0.07,-0.07 0.15,-0.11 0.25,-0.11 0.1,0 0.18,0.04 0.25,0.11 0.07,0.07 0.11,0.15 0.11,0.25 0,0.42 0.15,0.78 0.45,1.08 0.3,0.3 0.66,0.45 1.09,0.45 0.42,0 0.78,-0.15 1.09,-0.45 0.3,-0.3 0.45,-0.66 0.45,-1.09 0,-0.42 -0.15,-0.78 -0.46,-1.08 -0.3,-0.3 -0.67,-0.45 -1.09,-0.45l-0.04 0 0.08 0.08c0.05,0.05 0.08,0.12 0.08,0.19 0,0.07 -0.02,0.14 -0.08,0.19 -0.05,0.05 -0.12,0.08 -0.19,0.08 -0.08,-0 -0.14,-0.03 -0.19,-0.08l-0.55 -0.55c-0.07,-0.07 -0.11,-0.16 -0.11,-0.25 0,-0.1 0.04,-0.18 0.11,-0.26l0.55 -0.55c0.05,-0.05 0.12,-0.08 0.19,-0.08 0.07,-0 0.14,0.03 0.19,0.08 0.05,0.05 0.08,0.12 0.08,0.19 -0,0.07 -0.03,0.14 -0.09,0.19l-0.07 0.07 0.04 0c0.31,0 0.61,0.06 0.88,0.18 0.27,0.12 0.51,0.28 0.72,0.48 0.21,0.2 0.37,0.44 0.49,0.71 0.12,0.27 0.18,0.56 0.18,0.88 0,0.31 -0.06,0.61 -0.18,0.88 -0.12,0.27 -0.28,0.51 -0.48,0.72 -0.2,0.2 -0.44,0.36 -0.72,0.48 -0.27,0.12 -0.57,0.18 -0.88,0.18z"/>
 </g>
</svg>
